<mxfile host="Electron" modified="2024-06-11T20:00:08.119Z" agent="Mozilla/5.0 (Windows NT 10.0; Win64; x64) AppleWebKit/537.36 (KHTML, like Gecko) draw.io/24.5.3 Chrome/124.0.6367.207 Electron/30.0.6 Safari/537.36" etag="9_nez9NRwxjOlTnYPQB1" version="24.5.3" type="device">
  <diagram name="Page-1" id="u1nkJ9uYOrJ7bxc7M2nU">
    <mxGraphModel dx="2074" dy="2296" grid="1" gridSize="10" guides="1" tooltips="1" connect="1" arrows="1" fold="1" page="1" pageScale="1" pageWidth="850" pageHeight="1100" math="0" shadow="0">
      <root>
        <mxCell id="0" />
        <mxCell id="1" parent="0" />
        <mxCell id="frRfNmw6XWPK0pzjb5Dw-34" value="" style="whiteSpace=wrap;html=1;aspect=fixed;fillColor=#ffffff;fillStyle=auto;strokeColor=#FFFFFF;gradientColor=#ffffff;" parent="1" vertex="1">
          <mxGeometry x="10" y="-40" width="860" height="860" as="geometry" />
        </mxCell>
        <mxCell id="frRfNmw6XWPK0pzjb5Dw-1" value="&#xa;&lt;span style=&quot;color: rgb(224, 221, 217); font-family: ui-monospace, SFMono-Regular, &amp;quot;SF Mono&amp;quot;, Menlo, Consolas, &amp;quot;Liberation Mono&amp;quot;, monospace; font-size: 14px; font-style: normal; font-variant-ligatures: normal; font-variant-caps: normal; font-weight: 600; letter-spacing: normal; orphans: 2; text-align: start; text-indent: 0px; text-transform: none; widows: 2; word-spacing: 0px; -webkit-text-stroke-width: 0px; white-space: pre-wrap; background-color: rgb(24, 26, 27); text-decoration-thickness: initial; text-decoration-style: initial; text-decoration-color: initial; display: inline !important; float: none;&quot;&gt;FFFFFF&lt;/span&gt;&#xa;&#xa;" style="whiteSpace=wrap;html=1;aspect=fixed;fillColor=#a5d7e9;fontColor=#ffffff;strokeColor=#006EAF;direction=south;" parent="1" vertex="1">
          <mxGeometry x="100" y="60" width="640" height="640" as="geometry" />
        </mxCell>
        <mxCell id="frRfNmw6XWPK0pzjb5Dw-2" value="" style="whiteSpace=wrap;html=1;aspect=fixed;fillColor=#E0F4F3;strokeColor=#00F7FF;" parent="1" vertex="1">
          <mxGeometry x="190" y="150" width="450" height="450" as="geometry" />
        </mxCell>
        <mxCell id="frRfNmw6XWPK0pzjb5Dw-3" value="" style="image;aspect=fixed;html=1;points=[];align=center;fontSize=12;image=img/lib/azure2/other/Container_App_Environments.svg;" parent="1" vertex="1">
          <mxGeometry x="200" y="162" width="68" height="68" as="geometry" />
        </mxCell>
        <mxCell id="frRfNmw6XWPK0pzjb5Dw-4" value="" style="image;aspect=fixed;html=1;points=[];align=center;fontSize=12;image=img/lib/azure2/other/Worker_Container_App.svg;" parent="1" vertex="1">
          <mxGeometry x="290" y="265.63" width="68" height="66" as="geometry" />
        </mxCell>
        <mxCell id="frRfNmw6XWPK0pzjb5Dw-5" value="" style="image;aspect=fixed;html=1;points=[];align=center;fontSize=12;image=img/lib/azure2/other/Worker_Container_App.svg;" parent="1" vertex="1">
          <mxGeometry x="460" y="430" width="68" height="66" as="geometry" />
        </mxCell>
        <mxCell id="frRfNmw6XWPK0pzjb5Dw-6" value="" style="image;aspect=fixed;html=1;points=[];align=center;fontSize=12;image=img/lib/azure2/other/Worker_Container_App.svg;" parent="1" vertex="1">
          <mxGeometry x="450" y="218" width="68" height="66" as="geometry" />
        </mxCell>
        <mxCell id="frRfNmw6XWPK0pzjb5Dw-7" value="" style="image;aspect=fixed;html=1;points=[];align=center;fontSize=12;image=img/lib/azure2/other/Worker_Container_App.svg;" parent="1" vertex="1">
          <mxGeometry x="460" y="320" width="68" height="66" as="geometry" />
        </mxCell>
        <mxCell id="frRfNmw6XWPK0pzjb5Dw-8" value="" style="image;aspect=fixed;html=1;points=[];align=center;fontSize=12;image=img/lib/azure2/other/Worker_Container_App.svg;" parent="1" vertex="1">
          <mxGeometry x="290" y="400" width="68" height="66" as="geometry" />
        </mxCell>
        <mxCell id="frRfNmw6XWPK0pzjb5Dw-9" value="" style="image;aspect=fixed;html=1;points=[];align=center;fontSize=12;image=img/lib/azure2/identity/Users.svg;" parent="1" vertex="1">
          <mxGeometry x="30" y="182.37" width="60" height="65.63" as="geometry" />
        </mxCell>
        <mxCell id="frRfNmw6XWPK0pzjb5Dw-13" value="" style="verticalLabelPosition=bottom;html=1;verticalAlign=top;align=center;strokeColor=none;fillColor=#00BEF2;shape=mxgraph.azure.github_code;pointerEvents=1;" parent="1" vertex="1">
          <mxGeometry x="780" y="150" width="60" height="60" as="geometry" />
        </mxCell>
        <mxCell id="frRfNmw6XWPK0pzjb5Dw-19" value="" style="image;aspect=fixed;html=1;points=[];align=center;fontSize=12;image=img/lib/azure2/compute/Azure_Spring_Cloud.svg;" parent="1" vertex="1">
          <mxGeometry x="580" y="162" width="48" height="48" as="geometry" />
        </mxCell>
        <mxCell id="frRfNmw6XWPK0pzjb5Dw-20" value="" style="image;aspect=fixed;html=1;points=[];align=center;fontSize=12;image=img/lib/azure2/compute/Azure_Spring_Cloud.svg;" parent="1" vertex="1">
          <mxGeometry x="580" y="510" width="48" height="48" as="geometry" />
        </mxCell>
        <mxCell id="frRfNmw6XWPK0pzjb5Dw-21" value="" style="image;aspect=fixed;html=1;points=[];align=center;fontSize=12;image=img/lib/azure2/networking/Virtual_Networks.svg;" parent="1" vertex="1">
          <mxGeometry x="660" y="620" width="67" height="40" as="geometry" />
        </mxCell>
        <mxCell id="frRfNmw6XWPK0pzjb5Dw-22" value="" style="image;aspect=fixed;html=1;points=[];align=center;fontSize=12;image=img/lib/azure2/databases/Azure_Database_MySQL_Server.svg;" parent="1" vertex="1">
          <mxGeometry x="786" y="322" width="48" height="64" as="geometry" />
        </mxCell>
        <mxCell id="frRfNmw6XWPK0pzjb5Dw-28" value="" style="endArrow=classic;html=1;rounded=0;entryX=0.01;entryY=0.477;entryDx=0;entryDy=0;entryPerimeter=0;strokeWidth=3;endSize=9;strokeColor=#4a7887;" parent="1" source="frRfNmw6XWPK0pzjb5Dw-7" target="frRfNmw6XWPK0pzjb5Dw-22" edge="1">
          <mxGeometry width="50" height="50" relative="1" as="geometry">
            <mxPoint x="862.4960000000001" y="354.7539999999999" as="sourcePoint" />
            <mxPoint x="550" y="351.25" as="targetPoint" />
          </mxGeometry>
        </mxCell>
        <mxCell id="frRfNmw6XWPK0pzjb5Dw-30" value="" style="endArrow=none;html=1;rounded=0;strokeWidth=3;endSize=9;strokeColor=#4a7887;" parent="1" edge="1">
          <mxGeometry width="50" height="50" relative="1" as="geometry">
            <mxPoint x="518" y="250" as="sourcePoint" />
            <mxPoint x="530" y="460" as="targetPoint" />
            <Array as="points">
              <mxPoint x="610" y="250" />
              <mxPoint x="610" y="460" />
              <mxPoint x="530" y="460" />
            </Array>
          </mxGeometry>
        </mxCell>
        <mxCell id="frRfNmw6XWPK0pzjb5Dw-31" value="" style="endArrow=classic;html=1;rounded=0;entryX=0.142;entryY=0.642;entryDx=0;entryDy=0;entryPerimeter=0;strokeWidth=3;endSize=9;strokeColor=#4a7887;" parent="1" target="frRfNmw6XWPK0pzjb5Dw-13" edge="1">
          <mxGeometry width="50" height="50" relative="1" as="geometry">
            <mxPoint x="628" y="190" as="sourcePoint" />
            <mxPoint x="678" y="140" as="targetPoint" />
          </mxGeometry>
        </mxCell>
        <mxCell id="frRfNmw6XWPK0pzjb5Dw-10" style="edgeStyle=orthogonalEdgeStyle;rounded=0;orthogonalLoop=1;jettySize=auto;html=1;strokeColor=#4a7887;endSize=10;strokeWidth=3;" parent="1" source="frRfNmw6XWPK0pzjb5Dw-9" edge="1">
          <mxGeometry relative="1" as="geometry">
            <mxPoint x="290" y="300" as="targetPoint" />
            <Array as="points">
              <mxPoint x="60" y="300" />
            </Array>
          </mxGeometry>
        </mxCell>
        <mxCell id="frRfNmw6XWPK0pzjb5Dw-36" value="" style="endArrow=classic;html=1;rounded=0;strokeWidth=3;endSize=10;strokeColor=#4a7887;entryX=0.088;entryY=0.515;entryDx=0;entryDy=0;entryPerimeter=0;" parent="1" target="frRfNmw6XWPK0pzjb5Dw-8" edge="1">
          <mxGeometry width="50" height="50" relative="1" as="geometry">
            <mxPoint x="60" y="300" as="sourcePoint" />
            <mxPoint x="280" y="436" as="targetPoint" />
            <Array as="points">
              <mxPoint x="60" y="436" />
            </Array>
          </mxGeometry>
        </mxCell>
        <mxCell id="qmUi4MIc0_ioXcH1dGm4-1" value="Container App Environment" style="text;html=1;align=center;verticalAlign=middle;whiteSpace=wrap;rounded=0;strokeWidth=1;fontStyle=1;fontSize=11;textOpacity=70;" vertex="1" parent="1">
          <mxGeometry x="194" y="236" width="80" height="44" as="geometry" />
        </mxCell>
        <mxCell id="qmUi4MIc0_ioXcH1dGm4-2" value="VNet" style="text;html=1;align=center;verticalAlign=middle;whiteSpace=wrap;rounded=0;strokeWidth=1;fontStyle=1;fontSize=11;textOpacity=70;" vertex="1" parent="1">
          <mxGeometry x="653.5" y="670" width="80" height="30" as="geometry" />
        </mxCell>
        <mxCell id="qmUi4MIc0_ioXcH1dGm4-3" value="&lt;b&gt;Users&lt;/b&gt;" style="text;html=1;align=center;verticalAlign=middle;whiteSpace=wrap;rounded=0;" vertex="1" parent="1">
          <mxGeometry x="10" y="254" width="60" height="30" as="geometry" />
        </mxCell>
        <mxCell id="qmUi4MIc0_ioXcH1dGm4-4" value="MySQL Server" style="text;html=1;align=center;verticalAlign=middle;whiteSpace=wrap;rounded=0;strokeWidth=1;fontStyle=1;fontSize=11;textOpacity=70;" vertex="1" parent="1">
          <mxGeometry x="770" y="390" width="80" height="30" as="geometry" />
        </mxCell>
        <mxCell id="qmUi4MIc0_ioXcH1dGm4-5" value="Config Repository" style="text;html=1;align=center;verticalAlign=middle;whiteSpace=wrap;rounded=0;strokeWidth=1;fontStyle=1;fontSize=11;textOpacity=70;" vertex="1" parent="1">
          <mxGeometry x="780" y="228" width="80" height="30" as="geometry" />
        </mxCell>
        <mxCell id="qmUi4MIc0_ioXcH1dGm4-6" value="Api gateway" style="text;html=1;align=center;verticalAlign=middle;whiteSpace=wrap;rounded=0;strokeWidth=1;fontStyle=1;fontSize=11;textOpacity=70;" vertex="1" parent="1">
          <mxGeometry x="284" y="338" width="80" height="30" as="geometry" />
        </mxCell>
        <mxCell id="qmUi4MIc0_ioXcH1dGm4-7" value="Admin service" style="text;html=1;align=center;verticalAlign=middle;whiteSpace=wrap;rounded=0;strokeWidth=1;fontStyle=1;fontSize=11;textOpacity=70;" vertex="1" parent="1">
          <mxGeometry x="274" y="480" width="86" height="30" as="geometry" />
        </mxCell>
        <mxCell id="qmUi4MIc0_ioXcH1dGm4-8" value="Customers Service" style="text;html=1;align=center;verticalAlign=middle;whiteSpace=wrap;rounded=0;strokeWidth=1;fontStyle=1;fontSize=11;textOpacity=70;" vertex="1" parent="1">
          <mxGeometry x="444" y="280" width="80" height="30" as="geometry" />
        </mxCell>
        <mxCell id="qmUi4MIc0_ioXcH1dGm4-9" value="Vets Service" style="text;html=1;align=center;verticalAlign=middle;whiteSpace=wrap;rounded=0;strokeWidth=1;fontStyle=1;fontSize=11;textOpacity=70;" vertex="1" parent="1">
          <mxGeometry x="450" y="386" width="80" height="30" as="geometry" />
        </mxCell>
        <mxCell id="qmUi4MIc0_ioXcH1dGm4-10" value="Visits Service" style="text;html=1;align=center;verticalAlign=middle;whiteSpace=wrap;rounded=0;strokeWidth=1;fontStyle=1;fontSize=11;textOpacity=70;" vertex="1" parent="1">
          <mxGeometry x="450" y="496" width="80" height="30" as="geometry" />
        </mxCell>
        <mxCell id="qmUi4MIc0_ioXcH1dGm4-11" value="Config server for spring" style="text;html=1;align=center;verticalAlign=middle;whiteSpace=wrap;rounded=0;strokeWidth=1;fontStyle=1;fontSize=11;textOpacity=70;" vertex="1" parent="1">
          <mxGeometry x="560" y="210" width="80" height="30" as="geometry" />
        </mxCell>
        <mxCell id="qmUi4MIc0_ioXcH1dGm4-12" value="Eureka server for spring" style="text;html=1;align=center;verticalAlign=middle;whiteSpace=wrap;rounded=0;strokeWidth=1;fontStyle=1;fontSize=11;textOpacity=70;" vertex="1" parent="1">
          <mxGeometry x="560" y="560" width="80" height="30" as="geometry" />
        </mxCell>
        <mxCell id="qmUi4MIc0_ioXcH1dGm4-13" value="" style="image;aspect=fixed;html=1;points=[];align=center;fontSize=12;image=img/lib/azure2/containers/Container_Registries.svg;" vertex="1" parent="1">
          <mxGeometry x="150" y="-40" width="68" height="61" as="geometry" />
        </mxCell>
        <mxCell id="qmUi4MIc0_ioXcH1dGm4-14" value="Monitor" style="text;html=1;align=center;verticalAlign=middle;whiteSpace=wrap;rounded=0;strokeWidth=1;fontStyle=1;fontSize=11;textOpacity=70;" vertex="1" parent="1">
          <mxGeometry x="267" y="30" width="100" height="30" as="geometry" />
        </mxCell>
        <mxCell id="qmUi4MIc0_ioXcH1dGm4-16" value="" style="image;aspect=fixed;html=1;points=[];align=center;fontSize=12;image=img/lib/azure2/management_governance/Monitor.svg;" vertex="1" parent="1">
          <mxGeometry x="285" y="-34" width="64" height="64" as="geometry" />
        </mxCell>
        <mxCell id="qmUi4MIc0_ioXcH1dGm4-17" value="" style="image;aspect=fixed;html=1;points=[];align=center;fontSize=12;image=img/lib/azure2/devops/Application_Insights.svg;" vertex="1" parent="1">
          <mxGeometry x="406" y="-34" width="44" height="63" as="geometry" />
        </mxCell>
        <mxCell id="qmUi4MIc0_ioXcH1dGm4-18" value="Azure Container Registry" style="text;html=1;align=center;verticalAlign=middle;whiteSpace=wrap;rounded=0;strokeWidth=1;fontStyle=1;fontSize=11;textOpacity=70;" vertex="1" parent="1">
          <mxGeometry x="140" y="29" width="100" height="30" as="geometry" />
        </mxCell>
        <mxCell id="qmUi4MIc0_ioXcH1dGm4-19" value="Application Insights" style="text;html=1;align=center;verticalAlign=middle;whiteSpace=wrap;rounded=0;strokeWidth=1;fontStyle=1;fontSize=11;textOpacity=70;" vertex="1" parent="1">
          <mxGeometry x="380" y="30" width="100" height="30" as="geometry" />
        </mxCell>
        <mxCell id="qmUi4MIc0_ioXcH1dGm4-20" value="Identity" style="text;html=1;align=center;verticalAlign=middle;whiteSpace=wrap;rounded=0;strokeWidth=1;fontStyle=1;fontSize=11;textOpacity=70;" vertex="1" parent="1">
          <mxGeometry x="627" y="322" width="100" height="30" as="geometry" />
        </mxCell>
      </root>
    </mxGraphModel>
  </diagram>
</mxfile>
